<mxfile host="app.diagrams.net" modified="2024-05-10T14:25:42.901Z" agent="Mozilla/5.0 (Windows NT 10.0; Win64; x64) AppleWebKit/537.36 (KHTML, like Gecko) Chrome/124.0.0.0 Safari/537.36" etag="fNdE2PaxvwR1LqkpaGdM" scale="1.5" border="20" version="24.3.1" type="device">
  <diagram name="Page-1" id="oqGLFdNINWq9cL77llqG">
    <mxGraphModel dx="7800" dy="4810" grid="1" gridSize="10" guides="1" tooltips="1" connect="1" arrows="1" fold="1" page="1" pageScale="1" pageWidth="850" pageHeight="1100" math="0" shadow="0">
      <root>
        <mxCell id="0" />
        <mxCell id="1" parent="0" />
        <mxCell id="lL1Da7ZO35CxsxX5IZeq-13" style="edgeStyle=orthogonalEdgeStyle;rounded=0;orthogonalLoop=1;jettySize=auto;html=1;exitX=1;exitY=0.5;exitDx=0;exitDy=0;entryX=0;entryY=0.5;entryDx=0;entryDy=0;strokeWidth=7;" parent="1" source="lL1Da7ZO35CxsxX5IZeq-1" target="lL1Da7ZO35CxsxX5IZeq-2" edge="1">
          <mxGeometry relative="1" as="geometry" />
        </mxCell>
        <mxCell id="lL1Da7ZO35CxsxX5IZeq-1" value="" style="rounded=1;whiteSpace=wrap;html=1;fontStyle=0;labelBorderColor=default;strokeWidth=7;" parent="1" vertex="1">
          <mxGeometry x="-2125" y="-1640" width="240" height="160" as="geometry" />
        </mxCell>
        <mxCell id="lL1Da7ZO35CxsxX5IZeq-14" style="edgeStyle=orthogonalEdgeStyle;rounded=0;orthogonalLoop=1;jettySize=auto;html=1;exitX=1;exitY=0.5;exitDx=0;exitDy=0;entryX=0;entryY=0.5;entryDx=0;entryDy=0;strokeWidth=7;" parent="1" source="lL1Da7ZO35CxsxX5IZeq-2" target="lL1Da7ZO35CxsxX5IZeq-3" edge="1">
          <mxGeometry relative="1" as="geometry" />
        </mxCell>
        <mxCell id="lL1Da7ZO35CxsxX5IZeq-2" value="" style="rounded=1;whiteSpace=wrap;html=1;strokeWidth=7;" parent="1" vertex="1">
          <mxGeometry x="-1740" y="-1635.02" width="325" height="150" as="geometry" />
        </mxCell>
        <mxCell id="lL1Da7ZO35CxsxX5IZeq-15" style="edgeStyle=orthogonalEdgeStyle;rounded=0;orthogonalLoop=1;jettySize=auto;html=1;exitX=1;exitY=0.5;exitDx=0;exitDy=0;entryX=0;entryY=0.5;entryDx=0;entryDy=0;strokeWidth=7;" parent="1" source="lL1Da7ZO35CxsxX5IZeq-3" target="lL1Da7ZO35CxsxX5IZeq-4" edge="1">
          <mxGeometry relative="1" as="geometry" />
        </mxCell>
        <mxCell id="lL1Da7ZO35CxsxX5IZeq-3" value="" style="rounded=1;whiteSpace=wrap;html=1;strokeWidth=7;" parent="1" vertex="1">
          <mxGeometry x="-1315" y="-1645" width="430" height="170" as="geometry" />
        </mxCell>
        <mxCell id="lL1Da7ZO35CxsxX5IZeq-9" value="&lt;font style=&quot;font-size: 34px;&quot;&gt;Transmission through channel&lt;/font&gt;" style="text;html=1;align=center;verticalAlign=middle;whiteSpace=wrap;rounded=0;strokeWidth=7;" parent="1" vertex="1">
          <mxGeometry x="-1655.25" y="-1596.97" width="155.25" height="80" as="geometry" />
        </mxCell>
        <mxCell id="lL1Da7ZO35CxsxX5IZeq-10" value="&lt;font size=&quot;1&quot; style=&quot;&quot;&gt;&lt;span style=&quot;font-size: 35px;&quot;&gt;Packets of window size transmitted&lt;/span&gt;&lt;/font&gt;" style="text;html=1;align=center;verticalAlign=middle;whiteSpace=wrap;rounded=0;strokeWidth=7;" parent="1" vertex="1">
          <mxGeometry x="-1240" y="-1576.39" width="280" height="32.75" as="geometry" />
        </mxCell>
        <mxCell id="0Hg8aZzYnt4r4Ax5D5dg-13" style="edgeStyle=orthogonalEdgeStyle;rounded=1;orthogonalLoop=1;jettySize=auto;html=1;exitX=0.5;exitY=1;exitDx=0;exitDy=0;entryX=1;entryY=0.5;entryDx=0;entryDy=0;curved=0;strokeWidth=7;" edge="1" parent="1" source="lL1Da7ZO35CxsxX5IZeq-23" target="lL1Da7ZO35CxsxX5IZeq-29">
          <mxGeometry relative="1" as="geometry" />
        </mxCell>
        <mxCell id="lL1Da7ZO35CxsxX5IZeq-23" value="&lt;font style=&quot;font-size: 35px;&quot;&gt;Counting no.of NACK&#39;s in the last window&lt;br&gt;while transmission&lt;/font&gt;" style="rounded=1;whiteSpace=wrap;html=1;strokeWidth=7;" parent="1" vertex="1">
          <mxGeometry x="-80" y="-1290" width="475" height="154.38" as="geometry" />
        </mxCell>
        <mxCell id="lL1Da7ZO35CxsxX5IZeq-39" style="edgeStyle=orthogonalEdgeStyle;rounded=1;orthogonalLoop=1;jettySize=auto;html=1;exitX=0;exitY=0.5;exitDx=0;exitDy=0;strokeWidth=7;curved=0;" parent="1" source="lL1Da7ZO35CxsxX5IZeq-29" target="lL1Da7ZO35CxsxX5IZeq-36" edge="1">
          <mxGeometry relative="1" as="geometry" />
        </mxCell>
        <mxCell id="lL1Da7ZO35CxsxX5IZeq-60" style="edgeStyle=orthogonalEdgeStyle;rounded=0;orthogonalLoop=1;jettySize=auto;html=1;entryX=1;entryY=0.5;entryDx=0;entryDy=0;strokeWidth=7;dashed=1;" parent="1" source="lL1Da7ZO35CxsxX5IZeq-36" target="lL1Da7ZO35CxsxX5IZeq-57" edge="1">
          <mxGeometry relative="1" as="geometry" />
        </mxCell>
        <mxCell id="lL1Da7ZO35CxsxX5IZeq-79" value="" style="swimlane;startSize=0;dashed=1;strokeWidth=2;strokeColor=#FFFFFF;" parent="1" vertex="1">
          <mxGeometry x="-780" y="-2150" width="1160" height="750" as="geometry" />
        </mxCell>
        <mxCell id="lL1Da7ZO35CxsxX5IZeq-5" value="&lt;font style=&quot;font-size: 35px;&quot;&gt;&amp;nbsp;HARQ with Turbo codes&lt;/font&gt;" style="rounded=1;whiteSpace=wrap;html=1;strokeWidth=7;" parent="lL1Da7ZO35CxsxX5IZeq-79" vertex="1">
          <mxGeometry x="142.5" y="160" width="330" height="170" as="geometry" />
        </mxCell>
        <mxCell id="lL1Da7ZO35CxsxX5IZeq-24" style="edgeStyle=orthogonalEdgeStyle;rounded=0;orthogonalLoop=1;jettySize=auto;html=1;exitX=0.5;exitY=1;exitDx=0;exitDy=0;strokeWidth=7;" parent="lL1Da7ZO35CxsxX5IZeq-79" source="lL1Da7ZO35CxsxX5IZeq-5" target="lL1Da7ZO35CxsxX5IZeq-5" edge="1">
          <mxGeometry relative="1" as="geometry" />
        </mxCell>
        <mxCell id="lL1Da7ZO35CxsxX5IZeq-6" value="" style="rounded=1;whiteSpace=wrap;html=1;strokeWidth=7;" parent="lL1Da7ZO35CxsxX5IZeq-79" vertex="1">
          <mxGeometry x="630" y="185" width="250" height="120" as="geometry" />
        </mxCell>
        <mxCell id="lL1Da7ZO35CxsxX5IZeq-17" style="edgeStyle=orthogonalEdgeStyle;rounded=0;orthogonalLoop=1;jettySize=auto;html=1;exitX=1;exitY=0.5;exitDx=0;exitDy=0;entryX=0;entryY=0.5;entryDx=0;entryDy=0;strokeWidth=7;" parent="lL1Da7ZO35CxsxX5IZeq-79" source="lL1Da7ZO35CxsxX5IZeq-5" target="lL1Da7ZO35CxsxX5IZeq-6" edge="1">
          <mxGeometry relative="1" as="geometry" />
        </mxCell>
        <mxCell id="lL1Da7ZO35CxsxX5IZeq-94" value="&lt;font style=&quot;font-size: 34px;&quot;&gt;Next packet&lt;/font&gt;" style="text;html=1;align=center;verticalAlign=middle;whiteSpace=wrap;rounded=0;strokeWidth=7;" parent="lL1Da7ZO35CxsxX5IZeq-79" vertex="1">
          <mxGeometry x="670" y="222.5" width="160" height="45" as="geometry" />
        </mxCell>
        <mxCell id="lL1Da7ZO35CxsxX5IZeq-18" style="edgeStyle=orthogonalEdgeStyle;rounded=1;orthogonalLoop=1;jettySize=auto;html=1;strokeWidth=7;curved=0;exitX=1;exitY=0.5;exitDx=0;exitDy=0;entryX=0.5;entryY=0;entryDx=0;entryDy=0;" parent="lL1Da7ZO35CxsxX5IZeq-79" source="lL1Da7ZO35CxsxX5IZeq-6" target="lL1Da7ZO35CxsxX5IZeq-5" edge="1">
          <mxGeometry relative="1" as="geometry">
            <mxPoint x="360" y="100" as="targetPoint" />
            <mxPoint x="870" y="190" as="sourcePoint" />
            <Array as="points">
              <mxPoint x="950" y="245" />
              <mxPoint x="950" y="20" />
              <mxPoint x="308" y="20" />
            </Array>
          </mxGeometry>
        </mxCell>
        <mxCell id="lL1Da7ZO35CxsxX5IZeq-4" value="" style="rhombus;whiteSpace=wrap;html=1;rounded=1;strokeWidth=7;" parent="lL1Da7ZO35CxsxX5IZeq-79" vertex="1">
          <mxGeometry x="47.5" y="459.98" width="520" height="260" as="geometry" />
        </mxCell>
        <mxCell id="lL1Da7ZO35CxsxX5IZeq-16" style="edgeStyle=orthogonalEdgeStyle;rounded=0;orthogonalLoop=1;jettySize=auto;html=1;entryX=0.5;entryY=1;entryDx=0;entryDy=0;strokeWidth=7;" parent="lL1Da7ZO35CxsxX5IZeq-79" source="lL1Da7ZO35CxsxX5IZeq-4" target="lL1Da7ZO35CxsxX5IZeq-5" edge="1">
          <mxGeometry relative="1" as="geometry" />
        </mxCell>
        <mxCell id="lL1Da7ZO35CxsxX5IZeq-117" value="&lt;font style=&quot;font-size: 35px; font-weight: normal;&quot;&gt;No feedback received for last sliding window&lt;/font&gt;" style="text;html=1;align=center;verticalAlign=middle;whiteSpace=wrap;rounded=0;fontSize=35;fontStyle=1;strokeWidth=7;" parent="lL1Da7ZO35CxsxX5IZeq-79" vertex="1">
          <mxGeometry x="180" y="566.36" width="260" height="47.25" as="geometry" />
        </mxCell>
        <mxCell id="DOLRXA-MaTaO_nvqXHSa-22" value="&lt;font style=&quot;font-size: 43px;&quot;&gt;Yes&lt;/font&gt;" style="text;html=1;align=center;verticalAlign=middle;whiteSpace=wrap;rounded=1;labelBackgroundColor=none;strokeWidth=7;" parent="lL1Da7ZO35CxsxX5IZeq-79" vertex="1">
          <mxGeometry x="135" y="370" width="200" height="110" as="geometry" />
        </mxCell>
        <mxCell id="DOLRXA-MaTaO_nvqXHSa-29" value="&lt;span style=&quot;font-size: 43px;&quot;&gt;No&lt;/span&gt;" style="text;html=1;align=center;verticalAlign=middle;whiteSpace=wrap;rounded=1;labelBackgroundColor=none;strokeWidth=7;" parent="lL1Da7ZO35CxsxX5IZeq-79" vertex="1">
          <mxGeometry x="510" y="489.9999999999999" width="200" height="110" as="geometry" />
        </mxCell>
        <mxCell id="lL1Da7ZO35CxsxX5IZeq-19" value="&lt;font style=&quot;font-size: 35px;&quot;&gt;Adaptive HARQ With BCH codes&lt;/font&gt;" style="rounded=1;whiteSpace=wrap;html=1;glass=0;shadow=0;strokeWidth=7;" parent="lL1Da7ZO35CxsxX5IZeq-79" vertex="1">
          <mxGeometry x="750" y="514.98" width="380" height="150" as="geometry" />
        </mxCell>
        <mxCell id="lL1Da7ZO35CxsxX5IZeq-20" style="edgeStyle=orthogonalEdgeStyle;rounded=0;orthogonalLoop=1;jettySize=auto;html=1;exitX=1;exitY=0.5;exitDx=0;exitDy=0;entryX=0;entryY=0.5;entryDx=0;entryDy=0;strokeWidth=7;" parent="lL1Da7ZO35CxsxX5IZeq-79" source="lL1Da7ZO35CxsxX5IZeq-4" target="lL1Da7ZO35CxsxX5IZeq-19" edge="1">
          <mxGeometry relative="1" as="geometry" />
        </mxCell>
        <mxCell id="lL1Da7ZO35CxsxX5IZeq-82" value="" style="swimlane;startSize=0;dashed=1;strokeWidth=7;strokeColor=#FFFFFF;" parent="1" vertex="1">
          <mxGeometry x="-1350" y="-1170" width="892.5" height="980" as="geometry" />
        </mxCell>
        <mxCell id="lL1Da7ZO35CxsxX5IZeq-36" value="&lt;font style=&quot;font-size: 34px;&quot;&gt;No.of NACK&#39;s in last window&amp;lt;α2&lt;/font&gt;" style="rhombus;whiteSpace=wrap;html=1;rounded=1;strokeWidth=7;" parent="lL1Da7ZO35CxsxX5IZeq-82" vertex="1">
          <mxGeometry x="280" y="140" width="460" height="210" as="geometry" />
        </mxCell>
        <mxCell id="lL1Da7ZO35CxsxX5IZeq-41" value="&lt;font size=&quot;1&quot; style=&quot;&quot;&gt;&lt;span style=&quot;font-size: 32px;&quot;&gt;HARQ1 with BCH code(4599,3447)&lt;/span&gt;&lt;/font&gt;" style="rounded=1;whiteSpace=wrap;html=1;fontSize=31;strokeWidth=7;" parent="lL1Da7ZO35CxsxX5IZeq-82" vertex="1">
          <mxGeometry x="336.25" y="490" width="350" height="130" as="geometry" />
        </mxCell>
        <mxCell id="lL1Da7ZO35CxsxX5IZeq-43" style="edgeStyle=orthogonalEdgeStyle;rounded=0;orthogonalLoop=1;jettySize=auto;html=1;exitX=0.5;exitY=1;exitDx=0;exitDy=0;entryX=0.5;entryY=0;entryDx=0;entryDy=0;strokeWidth=7;" parent="lL1Da7ZO35CxsxX5IZeq-82" source="lL1Da7ZO35CxsxX5IZeq-36" target="lL1Da7ZO35CxsxX5IZeq-41" edge="1">
          <mxGeometry relative="1" as="geometry" />
        </mxCell>
        <mxCell id="lL1Da7ZO35CxsxX5IZeq-42" value="&lt;font style=&quot;font-size: 34px;&quot;&gt;β=W(window size)&lt;/font&gt;" style="rhombus;whiteSpace=wrap;html=1;rounded=1;strokeWidth=7;" parent="lL1Da7ZO35CxsxX5IZeq-82" vertex="1">
          <mxGeometry x="330" y="770" width="362.5" height="180" as="geometry" />
        </mxCell>
        <mxCell id="lL1Da7ZO35CxsxX5IZeq-44" style="edgeStyle=orthogonalEdgeStyle;rounded=1;orthogonalLoop=1;jettySize=auto;html=1;entryX=0.5;entryY=0;entryDx=0;entryDy=0;strokeWidth=7;curved=0;" parent="lL1Da7ZO35CxsxX5IZeq-82" source="lL1Da7ZO35CxsxX5IZeq-41" target="lL1Da7ZO35CxsxX5IZeq-42" edge="1">
          <mxGeometry relative="1" as="geometry">
            <mxPoint x="375" y="680" as="targetPoint" />
          </mxGeometry>
        </mxCell>
        <mxCell id="lL1Da7ZO35CxsxX5IZeq-51" style="edgeStyle=orthogonalEdgeStyle;rounded=1;orthogonalLoop=1;jettySize=auto;html=1;exitX=0.5;exitY=0;exitDx=0;exitDy=0;entryX=0.5;entryY=0;entryDx=0;entryDy=0;strokeWidth=7;curved=0;" parent="lL1Da7ZO35CxsxX5IZeq-82" target="lL1Da7ZO35CxsxX5IZeq-36" edge="1">
          <mxGeometry relative="1" as="geometry">
            <mxPoint x="473.125" y="180" as="targetPoint" />
            <mxPoint x="145" y="350" as="sourcePoint" />
            <Array as="points">
              <mxPoint x="140" y="350" />
              <mxPoint x="140" y="40" />
              <mxPoint x="510" y="40" />
            </Array>
          </mxGeometry>
        </mxCell>
        <mxCell id="lL1Da7ZO35CxsxX5IZeq-46" value="&lt;font style=&quot;font-size: 33px;&quot;&gt;Next packet transmission&lt;/font&gt;" style="rounded=1;whiteSpace=wrap;html=1;strokeWidth=7;" parent="lL1Da7ZO35CxsxX5IZeq-82" vertex="1">
          <mxGeometry x="11.25" y="330" width="230" height="140" as="geometry" />
        </mxCell>
        <mxCell id="lL1Da7ZO35CxsxX5IZeq-47" style="edgeStyle=orthogonalEdgeStyle;rounded=1;orthogonalLoop=1;jettySize=auto;html=1;exitX=0;exitY=0.5;exitDx=0;exitDy=0;entryX=0.5;entryY=1;entryDx=0;entryDy=0;strokeWidth=7;curved=0;" parent="lL1Da7ZO35CxsxX5IZeq-82" source="lL1Da7ZO35CxsxX5IZeq-42" target="lL1Da7ZO35CxsxX5IZeq-46" edge="1">
          <mxGeometry relative="1" as="geometry" />
        </mxCell>
        <mxCell id="DOLRXA-MaTaO_nvqXHSa-20" value="&lt;font style=&quot;font-size: 43px;&quot;&gt;Yes&lt;/font&gt;" style="text;html=1;align=center;verticalAlign=middle;whiteSpace=wrap;rounded=1;labelBackgroundColor=none;strokeWidth=7;" parent="lL1Da7ZO35CxsxX5IZeq-82" vertex="1">
          <mxGeometry x="350" y="330" width="200" height="110" as="geometry" />
        </mxCell>
        <mxCell id="DOLRXA-MaTaO_nvqXHSa-25" value="&lt;span style=&quot;font-size: 43px;&quot;&gt;No&lt;/span&gt;" style="text;html=1;align=center;verticalAlign=middle;whiteSpace=wrap;rounded=1;labelBackgroundColor=none;strokeWidth=7;" parent="lL1Da7ZO35CxsxX5IZeq-82" vertex="1">
          <mxGeometry x="130" y="750" width="200" height="110" as="geometry" />
        </mxCell>
        <mxCell id="DOLRXA-MaTaO_nvqXHSa-27" value="&lt;span style=&quot;font-size: 43px;&quot;&gt;No&lt;/span&gt;" style="text;html=1;align=center;verticalAlign=middle;whiteSpace=wrap;rounded=1;labelBackgroundColor=none;strokeWidth=7;" parent="lL1Da7ZO35CxsxX5IZeq-82" vertex="1">
          <mxGeometry x="130" y="150" width="200" height="110" as="geometry" />
        </mxCell>
        <mxCell id="DOLRXA-MaTaO_nvqXHSa-19" value="&lt;font style=&quot;font-size: 43px;&quot;&gt;Yes&lt;/font&gt;" style="text;html=1;align=center;verticalAlign=middle;whiteSpace=wrap;rounded=1;labelBackgroundColor=none;strokeWidth=7;" parent="lL1Da7ZO35CxsxX5IZeq-82" vertex="1">
          <mxGeometry x="692.5" y="750" width="200" height="110" as="geometry" />
        </mxCell>
        <mxCell id="lL1Da7ZO35CxsxX5IZeq-83" value="" style="swimlane;startSize=0;dashed=1;strokeWidth=7;strokeColor=#FFFFFF;" parent="1" vertex="1">
          <mxGeometry x="-360" y="-890" width="960" height="720" as="geometry" />
        </mxCell>
        <mxCell id="lL1Da7ZO35CxsxX5IZeq-33" value="&lt;font style=&quot;font-size: 35px;&quot;&gt;Next packet transmission&lt;/font&gt;" style="rounded=1;whiteSpace=wrap;html=1;strokeWidth=7;" parent="lL1Da7ZO35CxsxX5IZeq-83" vertex="1">
          <mxGeometry x="380" y="240" width="280" height="155" as="geometry" />
        </mxCell>
        <mxCell id="rqw4FtcZyE92YMFX8Jtc-3" style="edgeStyle=orthogonalEdgeStyle;rounded=1;orthogonalLoop=1;jettySize=auto;html=1;exitX=1;exitY=0.5;exitDx=0;exitDy=0;entryX=0.5;entryY=1;entryDx=0;entryDy=0;strokeWidth=7;curved=0;" parent="lL1Da7ZO35CxsxX5IZeq-83" source="lL1Da7ZO35CxsxX5IZeq-31" target="lL1Da7ZO35CxsxX5IZeq-33" edge="1">
          <mxGeometry relative="1" as="geometry" />
        </mxCell>
        <mxCell id="lL1Da7ZO35CxsxX5IZeq-31" value="&lt;font size=&quot;1&quot; style=&quot;&quot;&gt;&lt;span style=&quot;font-size: 34px;&quot;&gt;Pure ARQ(GBN)&lt;/span&gt;&lt;/font&gt;" style="rounded=1;whiteSpace=wrap;html=1;strokeWidth=7;" parent="lL1Da7ZO35CxsxX5IZeq-83" vertex="1">
          <mxGeometry x="25.619999999999983" y="525" width="288.75" height="110" as="geometry" />
        </mxCell>
        <mxCell id="DOLRXA-MaTaO_nvqXHSa-21" value="&lt;font style=&quot;font-size: 43px;&quot;&gt;Yes&lt;/font&gt;" style="text;html=1;align=center;verticalAlign=middle;whiteSpace=wrap;rounded=1;labelBackgroundColor=none;strokeWidth=7;" parent="lL1Da7ZO35CxsxX5IZeq-83" vertex="1">
          <mxGeometry x="10" y="70" width="200" height="110" as="geometry" />
        </mxCell>
        <mxCell id="lL1Da7ZO35CxsxX5IZeq-87" value="" style="swimlane;startSize=0;dashed=1;strokeWidth=7;strokeColor=#FFFFFF;" parent="1" vertex="1">
          <mxGeometry x="-2120" y="-1010" width="820" height="1020" as="geometry" />
        </mxCell>
        <mxCell id="0Hg8aZzYnt4r4Ax5D5dg-12" style="edgeStyle=orthogonalEdgeStyle;rounded=0;orthogonalLoop=1;jettySize=auto;html=1;exitX=0.5;exitY=1;exitDx=0;exitDy=0;strokeWidth=7;" edge="1" parent="lL1Da7ZO35CxsxX5IZeq-87" source="lL1Da7ZO35CxsxX5IZeq-57" target="lL1Da7ZO35CxsxX5IZeq-61">
          <mxGeometry relative="1" as="geometry" />
        </mxCell>
        <mxCell id="lL1Da7ZO35CxsxX5IZeq-57" value="&lt;font style=&quot;font-size: 34px;&quot;&gt;HARQ2 with BCH code(4599,2295)&lt;/font&gt;" style="rounded=1;whiteSpace=wrap;html=1;strokeWidth=7;" parent="lL1Da7ZO35CxsxX5IZeq-87" vertex="1">
          <mxGeometry x="270" y="30" width="340" height="120" as="geometry" />
        </mxCell>
        <mxCell id="lL1Da7ZO35CxsxX5IZeq-58" value="&lt;font style=&quot;font-size: 37px;&quot;&gt;Next packet transmission&lt;/font&gt;" style="rounded=1;whiteSpace=wrap;html=1;strokeWidth=7;" parent="lL1Da7ZO35CxsxX5IZeq-87" vertex="1">
          <mxGeometry x="-50" y="350" width="310" height="130" as="geometry" />
        </mxCell>
        <mxCell id="lL1Da7ZO35CxsxX5IZeq-63" style="edgeStyle=orthogonalEdgeStyle;rounded=1;orthogonalLoop=1;jettySize=auto;html=1;exitX=0;exitY=0.5;exitDx=0;exitDy=0;entryX=0.5;entryY=1;entryDx=0;entryDy=0;strokeWidth=7;curved=0;" parent="lL1Da7ZO35CxsxX5IZeq-87" source="lL1Da7ZO35CxsxX5IZeq-61" target="lL1Da7ZO35CxsxX5IZeq-58" edge="1">
          <mxGeometry relative="1" as="geometry" />
        </mxCell>
        <mxCell id="lL1Da7ZO35CxsxX5IZeq-64" style="edgeStyle=orthogonalEdgeStyle;rounded=1;orthogonalLoop=1;jettySize=auto;html=1;exitX=0.5;exitY=0;exitDx=0;exitDy=0;entryX=0;entryY=0.5;entryDx=0;entryDy=0;strokeWidth=7;curved=0;" parent="lL1Da7ZO35CxsxX5IZeq-87" source="lL1Da7ZO35CxsxX5IZeq-58" target="lL1Da7ZO35CxsxX5IZeq-57" edge="1">
          <mxGeometry relative="1" as="geometry">
            <mxPoint x="119.55555555555566" y="-10" as="targetPoint" />
          </mxGeometry>
        </mxCell>
        <mxCell id="lL1Da7ZO35CxsxX5IZeq-61" value="&lt;font style=&quot;font-size: 34px;&quot;&gt;β=W(window size)&lt;/font&gt;" style="rhombus;whiteSpace=wrap;html=1;rounded=1;strokeWidth=7;" parent="lL1Da7ZO35CxsxX5IZeq-87" vertex="1">
          <mxGeometry x="237.5" y="740" width="405" height="180" as="geometry" />
        </mxCell>
        <mxCell id="DOLRXA-MaTaO_nvqXHSa-24" value="&lt;span style=&quot;font-size: 43px;&quot;&gt;No&lt;/span&gt;" style="text;html=1;align=center;verticalAlign=middle;whiteSpace=wrap;rounded=1;labelBackgroundColor=none;strokeWidth=7;" parent="lL1Da7ZO35CxsxX5IZeq-87" vertex="1">
          <mxGeometry x="60" y="720" width="200" height="110" as="geometry" />
        </mxCell>
        <mxCell id="DOLRXA-MaTaO_nvqXHSa-10" value="&lt;font style=&quot;font-size: 43px;&quot;&gt;Yes&lt;/font&gt;" style="text;html=1;align=center;verticalAlign=middle;whiteSpace=wrap;rounded=1;labelBackgroundColor=none;strokeWidth=7;" parent="lL1Da7ZO35CxsxX5IZeq-87" vertex="1">
          <mxGeometry x="580" y="740" width="200" height="110" as="geometry" />
        </mxCell>
        <mxCell id="lL1Da7ZO35CxsxX5IZeq-151" value="&lt;font style=&quot;font-size: 33px; font-weight: normal;&quot;&gt;Data packets&lt;/font&gt;" style="text;html=1;align=center;verticalAlign=middle;whiteSpace=wrap;rounded=0;fontStyle=1;strokeWidth=7;" parent="1" vertex="1">
          <mxGeometry x="-2030" y="-1596.97" width="55" height="53.33" as="geometry" />
        </mxCell>
        <mxCell id="DOLRXA-MaTaO_nvqXHSa-28" value="&lt;span style=&quot;font-size: 43px;&quot;&gt;No&lt;/span&gt;" style="text;html=1;align=center;verticalAlign=middle;whiteSpace=wrap;rounded=1;labelBackgroundColor=none;strokeWidth=7;" parent="1" vertex="1">
          <mxGeometry x="-610" y="-1020" width="200" height="110" as="geometry" />
        </mxCell>
        <mxCell id="0Hg8aZzYnt4r4Ax5D5dg-17" style="edgeStyle=orthogonalEdgeStyle;rounded=0;orthogonalLoop=1;jettySize=auto;html=1;exitX=0.5;exitY=1;exitDx=0;exitDy=0;entryX=0.5;entryY=0;entryDx=0;entryDy=0;strokeWidth=7;" edge="1" parent="1" source="lL1Da7ZO35CxsxX5IZeq-29" target="lL1Da7ZO35CxsxX5IZeq-31">
          <mxGeometry relative="1" as="geometry" />
        </mxCell>
        <mxCell id="lL1Da7ZO35CxsxX5IZeq-29" value="&lt;ul&gt;&lt;li&gt;&lt;font style=&quot;font-size: 34px;&quot;&gt;No.of NACK&#39;s in last window&amp;lt;α1&lt;/font&gt;&lt;/li&gt;&lt;/ul&gt;" style="rhombus;whiteSpace=wrap;html=1;rounded=1;strokeWidth=7;" parent="1" vertex="1">
          <mxGeometry x="-425" y="-1010" width="470" height="174.38" as="geometry" />
        </mxCell>
        <mxCell id="rqw4FtcZyE92YMFX8Jtc-8" style="edgeStyle=orthogonalEdgeStyle;rounded=0;orthogonalLoop=1;jettySize=auto;html=1;entryX=0.5;entryY=0;entryDx=0;entryDy=0;strokeWidth=7;" parent="1" source="lL1Da7ZO35CxsxX5IZeq-19" target="lL1Da7ZO35CxsxX5IZeq-23" edge="1">
          <mxGeometry relative="1" as="geometry" />
        </mxCell>
        <mxCell id="0Hg8aZzYnt4r4Ax5D5dg-9" style="edgeStyle=orthogonalEdgeStyle;rounded=0;orthogonalLoop=1;jettySize=auto;html=1;exitX=1;exitY=0.5;exitDx=0;exitDy=0;entryX=0.5;entryY=1;entryDx=0;entryDy=0;strokeWidth=7;" edge="1" parent="1" source="lL1Da7ZO35CxsxX5IZeq-61" target="lL1Da7ZO35CxsxX5IZeq-31">
          <mxGeometry relative="1" as="geometry" />
        </mxCell>
        <mxCell id="0Hg8aZzYnt4r4Ax5D5dg-11" style="edgeStyle=orthogonalEdgeStyle;rounded=0;orthogonalLoop=1;jettySize=auto;html=1;exitX=1;exitY=0.5;exitDx=0;exitDy=0;entryX=0;entryY=0.5;entryDx=0;entryDy=0;strokeWidth=7;" edge="1" parent="1" source="lL1Da7ZO35CxsxX5IZeq-42" target="lL1Da7ZO35CxsxX5IZeq-31">
          <mxGeometry relative="1" as="geometry" />
        </mxCell>
        <mxCell id="0Hg8aZzYnt4r4Ax5D5dg-15" style="edgeStyle=orthogonalEdgeStyle;rounded=1;orthogonalLoop=1;jettySize=auto;html=1;exitX=0.5;exitY=0;exitDx=0;exitDy=0;entryX=1;entryY=1;entryDx=0;entryDy=0;curved=0;strokeWidth=7;" edge="1" parent="1" source="lL1Da7ZO35CxsxX5IZeq-33" target="lL1Da7ZO35CxsxX5IZeq-29">
          <mxGeometry relative="1" as="geometry">
            <Array as="points">
              <mxPoint x="160" y="-879" />
            </Array>
          </mxGeometry>
        </mxCell>
      </root>
    </mxGraphModel>
  </diagram>
</mxfile>
